<svg width="41" height="30" viewBox="0 0 41 30" fill="none" xmlns="http://www.w3.org/2000/svg">
<path fill-rule="evenodd" clip-rule="evenodd" d="M25.6236 26.25C25.6236 26.5815 25.4886 26.8995 25.2483 27.1339C25.0081 27.3683 24.6822 27.5 24.3424 27.5H3.84353C3.50375 27.5 3.17787 27.3683 2.93761 27.1339C2.69734 26.8995 2.56236 26.5815 2.56236 26.25V3.75C2.56236 3.41848 2.69734 3.10054 2.93761 2.86612C3.17787 2.6317 3.50375 2.5 3.84353 2.5H24.3424C24.6822 2.5 25.0081 2.6317 25.2483 2.86612C25.4886 3.10054 25.6236 3.41848 25.6236 3.75V8.75C25.6236 9.08152 25.7585 9.39946 25.9988 9.63388C26.2391 9.8683 26.565 10 26.9047 10C27.2445 10 27.5704 9.8683 27.8107 9.63388C28.0509 9.39946 28.1859 9.08152 28.1859 8.75V3.75C28.1859 2.75544 27.781 1.80161 27.0602 1.09835C26.3394 0.395088 25.3618 0 24.3424 0H3.84353C2.82417 0 1.84655 0.395088 1.12575 1.09835C0.404943 1.80161 0 2.75544 0 3.75V26.25C0 27.2446 0.404943 28.1984 1.12575 28.9017C1.84655 29.6049 2.82417 30 3.84353 30H24.3424C25.3618 30 26.3394 29.6049 27.0602 28.9017C27.781 28.1984 28.1859 27.2446 28.1859 26.25V21.25C28.1859 20.9185 28.0509 20.6005 27.8107 20.3661C27.5704 20.1317 27.2445 20 26.9047 20C26.565 20 26.2391 20.1317 25.9988 20.3661C25.7585 20.6005 25.6236 20.9185 25.6236 21.25V26.25Z" fill="#B0B0B0"/>
<path fill-rule="evenodd" clip-rule="evenodd" d="M40.6236 15.885C40.7429 15.7689 40.8376 15.6309 40.9022 15.4791C40.9668 15.3272 41 15.1644 41 15C41 14.8356 40.9668 14.6728 40.9022 14.5209C40.8376 14.3691 40.7429 14.2311 40.6236 14.115L32.9365 6.615C32.696 6.38028 32.3697 6.24842 32.0295 6.24842C31.6892 6.24842 31.363 6.38028 31.1224 6.615C30.8818 6.84972 30.7467 7.16806 30.7467 7.5C30.7467 7.83194 30.8818 8.15028 31.1224 8.385L36.6238 13.75H14.093C13.7532 13.75 13.4273 13.8817 13.187 14.1161C12.9468 14.3505 12.8118 14.6685 12.8118 15C12.8118 15.3315 12.9468 15.6495 13.187 15.8839C13.4273 16.1183 13.7532 16.25 14.093 16.25H36.6238L31.1224 21.615C30.8818 21.8497 30.7467 22.1681 30.7467 22.5C30.7467 22.8319 30.8818 23.1503 31.1224 23.385C31.363 23.6197 31.6892 23.7516 32.0295 23.7516C32.3697 23.7516 32.696 23.6197 32.9365 23.385L40.6236 15.885Z" fill="#B0B0B0"/>
</svg>
