<svg width="142" height="24" viewBox="0 0 142 24" fill="none" xmlns="http://www.w3.org/2000/svg">
<path d="M6.02125 1.304L6.11725 1.24H14.8213H23.5253L23.6533 1.336C23.7173 1.42133 23.7493 1.50667 23.7493 1.592L22.8213 8.888C22.8213 8.99467 22.7786 9.08 22.6933 9.144L22.5973 9.24H22.0533C21.6693 9.24 21.4453 9.21867 21.3813 9.176C21.2746 9.112 21.2426 8.84533 21.2853 8.376C21.3706 7.75733 21.4239 7.14933 21.4453 6.552C21.4666 5.67733 21.3599 4.96267 21.1253 4.408C20.9333 4.06667 20.6453 3.77867 20.2613 3.544C19.9626 3.39467 19.5679 3.27733 19.0773 3.192C18.4799 3.08533 17.2426 3.04267 15.3653 3.064C13.4026 3.064 12.3679 3.128 12.2613 3.256L10.2453 11.192C10.2453 11.2133 10.7893 11.224 11.8773 11.224C13.0506 11.2027 13.7013 11.1813 13.8293 11.16C14.7679 10.9893 15.4399 10.5413 15.8453 9.816C16.0373 9.432 16.2293 8.888 16.4213 8.184C16.4853 7.928 16.5493 7.736 16.6133 7.608C16.6773 7.52267 16.9226 7.48 17.3493 7.48C17.7759 7.48 18.0213 7.55467 18.0853 7.704L18.1493 7.8L17.0613 12.12C16.3786 14.9573 16.0053 16.44 15.9412 16.568C15.8986 16.696 15.6533 16.76 15.2053 16.76C14.7573 16.76 14.5013 16.6853 14.4373 16.536C14.3946 16.472 14.4053 16.28 14.4693 15.96C14.7679 14.7867 14.7999 13.9973 14.5653 13.592C14.3946 13.3573 14.0319 13.1867 13.4773 13.08C13.3706 13.0587 12.7093 13.0373 11.4933 13.016H9.79725L8.77325 16.984C8.13325 19.5653 7.81325 20.9093 7.81325 21.016C7.94125 21.1227 8.71992 21.1867 10.1493 21.208C11.0026 21.208 11.4719 21.2293 11.5573 21.272C11.6426 21.272 11.6853 21.3253 11.6853 21.432C11.7279 21.496 11.6959 21.7413 11.5893 22.168C11.4613 22.616 11.3759 22.8613 11.3333 22.904L11.2373 23H10.6613C7.95192 22.8933 5.00792 22.8827 1.82925 22.968C1.14658 22.9893 0.762583 22.936 0.67725 22.808C0.634583 22.744 0.655917 22.4987 0.74125 22.072C0.847917 21.6027 0.954583 21.336 1.06125 21.272C1.16792 21.2293 1.55192 21.208 2.21325 21.208C3.40792 21.1867 4.07992 21.1013 4.22925 20.952C4.29325 20.9093 5.06125 17.944 6.53325 12.056C8.00525 6.168 8.73058 3.21333 8.70925 3.192C8.66658 3.14933 8.59192 3.128 8.48525 3.128C8.22925 3.064 7.59992 3.032 6.59725 3.032C6.04258 3.032 5.73325 2.968 5.66925 2.84C5.62658 2.776 5.64792 2.53067 5.73325 2.104C5.83992 1.656 5.93592 1.38933 6.02125 1.304ZM27.7678 1.912C28.1944 1.80533 28.5998 1.83733 28.9838 2.008C29.5598 2.28533 29.8158 2.776 29.7517 3.48C29.7304 3.58667 29.7091 3.68267 29.6878 3.768C29.4531 4.57867 28.9198 5.12267 28.0878 5.4C28.0451 5.4 28.0024 5.41067 27.9598 5.432C27.3411 5.60267 26.8184 5.47467 26.3918 5.048C25.9011 4.536 25.8478 3.91733 26.2318 3.192C26.5304 2.50933 27.0424 2.08267 27.7678 1.912ZM24.9198 8.92C25.2184 8.856 25.6024 8.84533 26.0718 8.888C27.3091 9.12267 28.0878 9.79467 28.4078 10.904C28.5144 11.352 28.5144 11.8213 28.4078 12.312L26.9678 16.216C26.0078 18.7333 25.5171 20.0453 25.4958 20.152C25.2398 20.984 25.2291 21.5173 25.4638 21.752C25.5278 21.7947 25.6451 21.816 25.8158 21.816C26.0504 21.816 26.1998 21.8053 26.2638 21.784C27.1811 21.464 27.8851 20.5147 28.3758 18.936C28.4184 18.8507 28.4504 18.7547 28.4718 18.648C28.5784 18.328 28.6851 18.1573 28.7917 18.136C28.8558 18.1147 29.0478 18.104 29.3678 18.104C29.7731 18.104 29.9971 18.1253 30.0398 18.168C30.1464 18.2533 30.1678 18.4347 30.1038 18.712C29.6984 20.12 29.0584 21.2613 28.1838 22.136C27.5864 22.6907 26.9784 23.064 26.3598 23.256C26.1464 23.2987 25.8584 23.32 25.4958 23.32C25.1118 23.32 24.8344 23.2987 24.6638 23.256C23.9811 23.0853 23.4691 22.776 23.1278 22.328C22.8718 22.0293 22.7011 21.688 22.6158 21.304C22.5091 20.8347 22.5091 20.3547 22.6158 19.864L24.0878 15.928C25.0691 13.304 25.5918 11.864 25.6558 11.608C25.7411 11.2453 25.7411 10.9253 25.6558 10.648C25.5491 10.392 25.3144 10.3067 24.9518 10.392C24.3118 10.52 23.7358 11.0107 23.2238 11.864C22.9038 12.3973 22.6478 13.048 22.4557 13.816C22.3918 13.944 22.3491 14.0187 22.3278 14.04C22.2851 14.0827 22.0611 14.104 21.6558 14.104H21.0478L20.9518 14.008C20.8451 13.9227 20.8558 13.6987 20.9838 13.336C21.5171 11.544 22.3811 10.2533 23.5758 9.464C23.6824 9.4 23.7998 9.336 23.9278 9.272C24.3118 9.05867 24.6424 8.94133 24.9198 8.92ZM36.527 0.983999C38.2337 0.856 39.0657 0.792 39.023 0.792C39.215 0.792 39.343 0.866666 39.407 1.016C39.4283 1.10133 39.0763 2.60533 38.351 5.528C37.6043 8.51467 37.231 9.99733 37.231 9.976C37.231 10.0187 37.3377 9.96533 37.551 9.816C38.2337 9.38933 38.9163 9.09067 39.599 8.92C40.2177 8.83467 40.7937 8.84533 41.327 8.952C42.223 9.144 42.9697 9.53867 43.567 10.136C44.1003 10.6693 44.4843 11.32 44.719 12.088C45.0817 13.1547 45.135 14.3173 44.879 15.576C44.4523 17.9013 43.3537 19.832 41.583 21.368C41.263 21.6453 40.943 21.8907 40.623 22.104C39.9617 22.5307 39.343 22.84 38.767 23.032C37.3803 23.48 36.1537 23.448 35.087 22.936C33.615 22.232 32.7617 20.92 32.527 19C32.463 18.6373 32.463 18.0293 32.527 17.176C32.591 16.7493 33.1777 14.328 34.287 9.912C35.3537 5.60267 35.8443 3.36267 35.759 3.192C35.6097 3.04267 35.151 2.95733 34.383 2.936C33.871 2.936 33.583 2.86133 33.519 2.712C33.4763 2.648 33.5083 2.40267 33.615 1.976C33.7217 1.528 33.807 1.28267 33.871 1.24C33.935 1.176 33.999 1.144 34.063 1.144L36.527 0.983999ZM40.751 10.456C40.303 10.328 39.791 10.3493 39.215 10.52C38.3403 10.8827 37.4977 11.576 36.687 12.6L36.527 12.824L35.983 15.064C35.4283 17.2613 35.151 18.68 35.151 19.32C35.151 20.216 35.375 20.888 35.823 21.336C36.3563 21.8693 37.0497 21.9973 37.903 21.72C38.735 21.4427 39.4283 20.8773 39.983 20.024C40.303 19.5333 40.6443 18.712 41.007 17.56C41.3697 16.1947 41.6257 15.1173 41.775 14.328C42.0523 13.048 42.0737 12.1093 41.839 11.512C41.6257 10.9787 41.263 10.6267 40.751 10.456Z" fill="white"/>
<path d="M54.4058 8.888H55.6858C57.2218 9.12267 58.2031 9.82667 58.6298 11C58.7578 11.4267 58.7791 11.864 58.6938 12.312C58.3311 13.9547 57.1471 15.032 55.1418 15.544C54.2458 15.8 52.7631 15.96 50.6938 16.024H49.6698L49.6058 16.216C49.5204 16.5787 49.4138 17.1333 49.2858 17.88C49.2004 18.5627 49.2004 19.1707 49.2858 19.704C49.4138 20.3227 49.6804 20.824 50.0858 21.208C50.5764 21.656 51.2378 21.8693 52.0698 21.848C53.7764 21.7413 55.2164 21.2507 56.3898 20.376C56.7951 20.12 57.1364 19.8107 57.4138 19.448C57.6484 19.1707 57.8404 19.0853 57.9898 19.192C58.0538 19.2347 58.1711 19.3413 58.3418 19.512C58.6404 19.832 58.7791 20.0347 58.7578 20.12C58.7364 20.2267 58.5018 20.504 58.0538 20.952C56.7098 22.232 54.9818 23 52.8698 23.256C52.1444 23.384 51.5044 23.4053 50.9498 23.32C48.9444 23.1067 47.5471 22.0933 46.7578 20.28C46.6084 19.96 46.4911 19.6187 46.4058 19.256C46.2564 18.7227 46.1818 18.0507 46.1818 17.24C46.2031 15.9813 46.4804 14.8293 47.0138 13.784C47.3978 12.9947 47.9204 12.2693 48.5818 11.608C48.9018 11.3093 49.2964 10.9787 49.7658 10.616C51.0671 9.656 52.4751 9.09067 53.9898 8.92C54.0964 8.89867 54.2351 8.888 54.4058 8.888ZM55.2698 10.392C54.4804 10.2427 53.6484 10.392 52.7738 10.84C51.5151 11.416 50.6404 12.5253 50.1498 14.168C50.1071 14.3387 50.0751 14.4347 50.0538 14.456C50.0538 14.4987 50.4058 14.52 51.1098 14.52C52.4964 14.4987 53.5418 14.4027 54.2458 14.232C55.6964 13.9333 56.5498 13.3147 56.8058 12.376C56.8911 12.0347 56.8804 11.736 56.7738 11.48C56.5818 10.9253 56.0804 10.5627 55.2698 10.392ZM63.776 8.888C64.16 8.84533 64.5973 8.856 65.088 8.92C66.0907 9.15467 66.8053 9.64533 67.232 10.392L67.328 10.552L67.52 10.328C67.968 9.88 68.4373 9.53867 68.928 9.304C69.4827 9.02667 70.1013 8.888 70.784 8.888C71.168 8.888 71.4347 8.90933 71.584 8.952C71.968 9.05867 72.3413 9.24 72.704 9.496C73.4293 10.0933 73.7493 10.904 73.664 11.928C73.664 11.992 73.664 12.0453 73.664 12.088C73.536 13.1333 73.088 13.8373 72.32 14.2C71.7227 14.4773 71.1573 14.4987 70.624 14.264C70.0053 13.9653 69.7707 13.4213 69.92 12.632C70.0053 12.2053 70.208 11.8107 70.528 11.448C70.8053 11.192 71.1147 11.0107 71.456 10.904L71.68 10.808L71.584 10.712C71.0933 10.3067 70.4747 10.2427 69.728 10.52C68.9813 10.8187 68.2987 11.512 67.68 12.6L67.424 12.984L66.304 17.56C65.5147 20.632 65.088 22.232 65.024 22.36C64.7253 23 64.224 23.3307 63.52 23.352C63.1787 23.352 62.88 23.256 62.624 23.064C62.5173 23.0213 62.4213 22.904 62.336 22.712C62.2293 22.4987 62.2187 22.1787 62.304 21.752C62.4107 21.2613 62.784 19.7253 63.424 17.144C64.256 13.8373 64.6827 12.12 64.704 11.992C64.8533 10.9467 64.6507 10.4027 64.096 10.36C64.032 10.36 63.968 10.36 63.904 10.36C63.264 10.488 62.6987 11.5333 62.208 13.496C62.1227 13.752 62.08 13.8907 62.08 13.912C61.8453 14.04 61.5893 14.104 61.312 14.104H60.704L60.608 14.008C60.5227 13.9227 60.5227 13.6987 60.608 13.336C61.0133 11.8427 61.5147 10.7227 62.112 9.976C62.5813 9.4 63.136 9.03733 63.776 8.888Z" fill="#008CDB"/>
<path d="M89.6695 0.471998H91.0775C92.8268 0.642665 94.2028 1.4 95.2055 2.744C95.3122 2.872 95.3762 2.94667 95.3975 2.968C95.3762 2.968 95.7282 2.62667 96.4535 1.944C97.3708 1.06933 97.8082 0.653332 97.7655 0.695999L98.0215 0.439999H98.2775C98.5548 0.439999 98.7148 0.503998 98.7575 0.631998C98.7788 0.674665 98.4268 2.18933 97.7015 5.176C96.9335 8.248 96.5495 9.752 96.5495 9.688C96.5068 9.816 96.2082 9.88 95.6535 9.88H94.9815L94.8855 9.784C94.8002 9.69867 94.7788 9.50667 94.8215 9.208C94.8215 9.18667 94.8322 9.08 94.8535 8.888C95.0668 7.352 94.9388 5.98667 94.4695 4.792C93.9575 3.384 93.0402 2.552 91.7175 2.296C91.3335 2.21067 90.7468 2.2 89.9575 2.264C89.8935 2.28533 89.8402 2.296 89.7975 2.296C87.8988 2.57333 86.1602 3.32 84.5815 4.536C82.8322 5.944 81.5415 8.00267 80.7095 10.712C80.3468 11.8213 80.0908 12.888 79.9415 13.912C79.5788 16.0667 79.7068 17.752 80.3255 18.968C80.6882 19.6933 81.2108 20.2907 81.8935 20.76C82.4908 21.208 83.2588 21.5387 84.1975 21.752C86.2668 22.1573 88.0055 21.8587 89.4135 20.856C89.4988 20.792 89.5842 20.728 89.6695 20.664C90.1388 20.2587 90.4588 19.8427 90.6295 19.416C91.1628 17.2827 91.4295 16.2373 91.4295 16.28C91.4295 16.2373 91.3868 16.216 91.3015 16.216C91.1308 16.1307 90.4162 16.0773 89.1575 16.056C88.2188 16.056 87.7068 15.9813 87.6215 15.832C87.6002 15.768 87.6322 15.5227 87.7175 15.096C87.8242 14.6907 87.9202 14.4453 88.0055 14.36L88.1015 14.264H88.6455C91.3762 14.3707 94.0108 14.3813 96.5495 14.296C97.1042 14.2747 97.4242 14.3387 97.5095 14.488C97.5308 14.552 97.4988 14.7973 97.4135 15.224C97.3068 15.6293 97.2108 15.8747 97.1255 15.96L97.0295 16.056H96.5495C95.7602 16.056 95.2802 16.0987 95.1095 16.184C95.0668 16.2053 95.0135 16.248 94.9495 16.312C94.8855 16.376 94.5975 17.4747 94.0855 19.608C93.5522 21.7413 93.2535 22.84 93.1895 22.904C93.0615 23.032 92.7948 22.936 92.3895 22.616C91.9415 22.2533 91.6108 21.944 91.3975 21.688L91.2055 21.432L90.9495 21.656C90.3095 22.232 89.4988 22.6907 88.5175 23.032C87.8135 23.3093 86.9495 23.512 85.9255 23.64C85.2215 23.7253 84.4428 23.7253 83.5895 23.64C83.5255 23.64 83.4722 23.64 83.4295 23.64C81.3602 23.3413 79.6748 22.5093 78.3735 21.144C77.1362 19.8427 76.3895 18.2213 76.1335 16.28C76.0055 15.4053 76.0162 14.4133 76.1655 13.304C76.5495 10.552 77.7442 8.01333 79.7495 5.688C80.4962 4.87733 81.1148 4.28 81.6055 3.896C83.7388 2.12533 86.0322 1.02667 88.4855 0.599998C88.5922 0.578665 88.9868 0.535999 89.6695 0.471998ZM108.106 8.888C108.127 8.86667 108.319 8.856 108.682 8.856C109.066 8.89867 109.332 8.93067 109.482 8.952C110.186 9.16533 110.762 9.528 111.21 10.04L111.37 10.264L111.594 10.04C112.17 9.50667 112.767 9.35733 113.386 9.592C113.706 9.69867 113.919 9.90133 114.026 10.2C114.111 10.456 114.058 10.9893 113.866 11.8C113.738 12.3547 113.439 13.56 112.97 15.416C112.223 18.3387 111.828 19.9493 111.786 20.248C111.7 20.7173 111.711 21.1013 111.818 21.4C111.946 21.7413 112.191 21.8907 112.554 21.848C112.81 21.8267 113.076 21.624 113.354 21.24C113.652 20.792 113.962 19.96 114.282 18.744C114.367 18.3813 114.463 18.1787 114.57 18.136C114.634 18.1147 114.836 18.104 115.178 18.104C115.583 18.104 115.807 18.1253 115.85 18.168C115.978 18.2533 115.978 18.4987 115.85 18.904C115.295 20.888 114.58 22.2 113.706 22.84C113.364 23.096 113.023 23.256 112.682 23.32C112.234 23.384 111.754 23.352 111.242 23.224C110.282 23.0107 109.599 22.5093 109.194 21.72L109.098 21.496L108.906 21.656C107.22 23.1067 105.556 23.6187 103.914 23.192C103.444 23.064 103.007 22.872 102.602 22.616C101.386 21.7627 100.692 20.4933 100.522 18.808C100.436 18.232 100.447 17.6133 100.554 16.952C100.831 15.16 101.567 13.5173 102.762 12.024C103.167 11.5333 103.615 11.0853 104.106 10.68C105.322 9.67733 106.548 9.09067 107.786 8.92C107.871 8.89867 107.978 8.888 108.106 8.888ZM109.034 10.456C108.607 10.3493 108.255 10.328 107.978 10.392C107.316 10.52 106.676 10.8933 106.058 11.512C105.439 12.1733 104.895 13.3467 104.426 15.032C104.319 15.416 104.202 15.864 104.074 16.376C103.711 17.8267 103.53 18.904 103.53 19.608C103.53 20.2693 103.668 20.792 103.946 21.176C104.351 21.7093 104.916 21.9227 105.642 21.816C106.452 21.7307 107.284 21.2613 108.138 20.408C108.522 20.024 108.81 19.672 109.002 19.352C109.002 19.416 109.29 18.296 109.866 15.992L110.666 12.696L110.634 12.472C110.356 11.4053 109.823 10.7333 109.034 10.456Z" fill="#FF6E3C"/>
<path d="M123.411 3C123.731 2.91467 124.03 2.936 124.307 3.064C124.627 3.17067 124.841 3.37333 124.947 3.672C125.033 3.928 124.969 4.46133 124.755 5.272C124.691 5.54933 124.574 6.02933 124.403 6.712C124.019 8.312 123.817 9.12267 123.795 9.144C123.795 9.18667 124.307 9.208 125.331 9.208H126.867L126.963 9.304C127.091 9.38933 127.091 9.66667 126.963 10.136C126.899 10.456 126.835 10.68 126.771 10.808C126.707 10.9147 126.494 10.9787 126.131 11C125.961 11 125.566 11 124.947 11H123.347L123.315 11.128C123.315 11.192 122.942 12.6747 122.195 15.576C121.513 18.3067 121.139 19.864 121.075 20.248C120.99 20.7173 121.001 21.1013 121.107 21.4C121.257 21.7627 121.609 21.9013 122.163 21.816C123.081 21.624 123.902 20.9733 124.627 19.864C124.99 19.3093 125.225 18.8613 125.331 18.52C125.438 18.2853 125.555 18.1573 125.683 18.136C125.769 18.1147 125.95 18.104 126.227 18.104C126.633 18.104 126.867 18.1253 126.931 18.168C127.059 18.296 127.027 18.552 126.835 18.936C126.302 20.088 125.641 21.048 124.851 21.816C124.403 22.264 123.955 22.5947 123.507 22.808C123.166 23 122.793 23.1493 122.387 23.256C122.195 23.2987 121.897 23.32 121.491 23.32C121.086 23.32 120.766 23.288 120.531 23.224C119.763 23.032 119.166 22.6693 118.739 22.136C118.462 21.752 118.291 21.3573 118.227 20.952C118.185 20.7813 118.163 20.536 118.163 20.216L118.195 19.768L119.283 15.416C120.009 12.5573 120.371 11.096 120.371 11.032C120.371 11.0107 119.859 11 118.835 11C117.769 11 117.193 10.9253 117.107 10.776C117.065 10.712 117.086 10.4773 117.171 10.072C117.299 9.64533 117.374 9.42133 117.395 9.4C117.459 9.29333 117.673 9.22933 118.035 9.208C118.206 9.208 118.601 9.208 119.219 9.208H120.851L121.459 6.68C121.907 4.86667 122.206 3.87467 122.355 3.704C122.398 3.66133 122.462 3.59733 122.547 3.512C122.782 3.27733 123.07 3.10667 123.411 3ZM137.406 8.888H138.686C140.222 9.12267 141.203 9.82667 141.63 11C141.758 11.4267 141.779 11.864 141.694 12.312C141.331 13.9547 140.147 15.032 138.142 15.544C137.246 15.8 135.763 15.96 133.694 16.024H132.67L132.606 16.216C132.52 16.5787 132.414 17.1333 132.286 17.88C132.2 18.5627 132.2 19.1707 132.286 19.704C132.414 20.3227 132.68 20.824 133.086 21.208C133.576 21.656 134.238 21.8693 135.07 21.848C136.776 21.7413 138.216 21.2507 139.39 20.376C139.795 20.12 140.136 19.8107 140.414 19.448C140.648 19.1707 140.84 19.0853 140.99 19.192C141.054 19.2347 141.171 19.3413 141.342 19.512C141.64 19.832 141.779 20.0347 141.758 20.12C141.736 20.2267 141.502 20.504 141.054 20.952C139.71 22.232 137.982 23 135.87 23.256C135.144 23.384 134.504 23.4053 133.95 23.32C131.944 23.1067 130.547 22.0933 129.758 20.28C129.608 19.96 129.491 19.6187 129.406 19.256C129.256 18.7227 129.182 18.0507 129.182 17.24C129.203 15.9813 129.48 14.8293 130.014 13.784C130.398 12.9947 130.92 12.2693 131.582 11.608C131.902 11.3093 132.296 10.9787 132.766 10.616C134.067 9.656 135.475 9.09067 136.99 8.92C137.096 8.89867 137.235 8.888 137.406 8.888ZM138.27 10.392C137.48 10.2427 136.648 10.392 135.774 10.84C134.515 11.416 133.64 12.5253 133.15 14.168C133.107 14.3387 133.075 14.4347 133.054 14.456C133.054 14.4987 133.406 14.52 134.11 14.52C135.496 14.4987 136.542 14.4027 137.246 14.232C138.696 13.9333 139.55 13.3147 139.806 12.376C139.891 12.0347 139.88 11.736 139.774 11.48C139.582 10.9253 139.08 10.5627 138.27 10.392Z" fill="#FFC50B"/>
</svg>
